<?xml version="1.0" standalone="no"?>
<!DOCTYPE svg PUBLIC "-//W3C//DTD SVG 20010904//EN"
 "http://www.w3.org/TR/2001/REC-SVG-20010904/DTD/svg10.dtd">
<svg version="1.0" xmlns="http://www.w3.org/2000/svg"
 width="225.000000pt" height="225.000000pt" viewBox="0 0 225.000000 225.000000"
 preserveAspectRatio="xMidYMid meet">
<metadata>
Created by potrace 1.16, written by Peter Selinger 2001-2019
</metadata>
<g transform="translate(0.000000,225.000000) scale(0.100000,-0.100000)"
fill="#000000" stroke="none">
<path d="M1681 1960 c-37 -9 -119 -89 -524 -510 l-197 -205 -176 177 c-256
258 -250 258 -480 26 -182 -183 -204 -214 -204 -277 1 -25 6 -56 13 -69 7 -12
137 -152 289 -310 484 -504 469 -489 515 -503 76 -22 102 -7 259 153 449 459
921 953 948 992 33 49 35 116 5 165 -34 56 -330 351 -358 357 -14 3 -33 7 -41
9 -8 1 -30 -1 -49 -5z m114 -272 c39 -40 90 -94 114 -120 l44 -47 -43 -48
c-48 -52 -745 -779 -872 -908 l-78 -80 -115 115 c-63 63 -115 119 -115 124 0
12 45 60 330 356 130 135 330 343 445 463 115 119 211 217 215 217 3 0 37 -33
75 -72z m-1111 -430 l146 -152 -112 -117 c-62 -64 -118 -117 -124 -118 -7 0
-76 67 -154 149 l-143 151 44 47 c105 112 184 192 190 192 4 0 73 -68 153
-152z"/>
</g>
</svg>
